<?xml version="1.0" encoding="utf-8"?>
<!-- Generator: Adobe Illustrator 16.0.0, SVG Export Plug-In . SVG Version: 6.00 Build 0)  -->
<!DOCTYPE svg PUBLIC "-//W3C//DTD SVG 1.1//EN" "http://www.w3.org/Graphics/SVG/1.1/DTD/svg11.dtd">
<svg version="1.1" id="Layer_1" xmlns="http://www.w3.org/2000/svg" x="0px" y="0px"
     width="24px" height="24px" viewBox="0 0 24 24" enable-background="new 0 0 24 24" xml:space="preserve">
<g>
	<g>
		<path fill="#333333" d="M17.169,23.999H6.831C3.064,23.999,0,20.936,0,17.169V6.83C0,3.063,3.064,0,6.831,0h10.338
			c3.767,0,6.832,3.063,6.832,6.83v10.339C24.001,20.936,20.936,23.999,17.169,23.999z M6.831,2.058
			c-2.632,0-4.774,2.141-4.774,4.772v10.339c0,2.632,2.142,4.773,4.774,4.773h10.338c2.632,0,4.774-2.142,4.774-4.773V6.83
			c0-2.632-2.143-4.772-4.774-4.772H6.831z"/>
	</g>
    <g>
		<path fill="#333333" d="M12,18.145c-3.388,0-6.145-2.757-6.145-6.145c0-3.388,2.757-6.145,6.145-6.145
			c3.388,0,6.145,2.757,6.145,6.145C18.145,15.388,15.388,18.145,12,18.145z M12,7.912c-2.254,0-4.087,1.833-4.087,4.087
			c0,2.253,1.833,4.088,4.087,4.088c2.254,0,4.088-1.835,4.088-4.088C16.088,9.745,14.254,7.912,12,7.912z"/>
	</g>
    <g>
		<circle fill="#333333" cx="18.409" cy="5.503" r="1.477"/>
	</g>
</g>
</svg>
