<?xml version="1.0" encoding="utf-8"?>
<!-- Generator: Adobe Illustrator 16.0.0, SVG Export Plug-In . SVG Version: 6.00 Build 0)  -->
<!DOCTYPE svg PUBLIC "-//W3C//DTD SVG 1.1//EN" "http://www.w3.org/Graphics/SVG/1.1/DTD/svg11.dtd">
<svg xmlns:xlink="http://www.w3.org/1999/xlink" version="1.1" id="Layer_1" xmlns="http://www.w3.org/2000/svg" x="0px"
     y="0px"
     width="246.75px" height="102.5px" viewBox="0 0 246.75 102.5" enable-background="new 0 0 246.75 102.5"
     xml:space="preserve">
    <g>
        <defs>
            <rect id="SVGID_1_" x="1.5" y="1.25" width="258.37" height="103.701"/>
        </defs>
        <clipPath id="SVGID_2_">
            <use xlink:href="#SVGID_1_" overflow="visible"/>
        </clipPath>
        <g clip-path="url(#SVGID_2_)">
            <defs>
                <rect id="SVGID_3_" x="1.5" y="1.25" width="258.37" height="103.701"/>
            </defs>
            <clipPath id="SVGID_4_">
                <use xlink:href="#SVGID_3_" overflow="visible"/>
            </clipPath>
            <path clip-path="url(#SVGID_4_)" fill="#231F20" d="M22.435,57.351c0,2.678-2.214,3.809-5.716,3.809H9.406v-7.62h7.828
                c3.346,0,5.2,1.339,5.2,3.707V57.351z M30.06,58.17c0.151-0.664,0.253-1.367,0.253-2.159v-0.104c0-2.473-0.823-4.481-2.472-6.128
                c-2.059-2.059-5.304-3.193-9.424-3.193H1.681v36.048H18.83c1.295,0,2.511-0.091,3.655-0.259c-0.308-1.627-0.484-3.297-0.484-5.012
                c0-0.741,0.053-1.477,0.112-2.203c-0.881,0.352-1.985,0.523-3.283,0.523H9.406v-7.932h9.166c2.269,0,3.808,0.479,4.749,1.308
                c0.597-1.841,1.398-3.586,2.356-5.229c-0.036-0.013-0.066-0.028-0.101-0.042c0.07-0.04,0.134-0.086,0.203-0.126
                C26.973,61.651,28.402,59.799,30.06,58.17 M147.366,82.634l-15.346-20.753l14.677-15.295h-9.578l-14.626,15.758V46.586h-7.931
                v4.862c2.052,3.799,3.219,8.149,3.219,12.768c0,4.622-1.167,8.97-3.219,12.771v5.647h7.931v-11.02l4.17-4.324l11.177,15.344
                H147.366z M153.03,82.634h7.931V46.586h-7.931V82.634z M195.772,82.634h6.747V46.586h-7.828v22.195l-16.89-22.195h-7.313v36.048
                h7.828V59.717L195.772,82.634z M236.766,68.73v5.149c-2.008,1.44-4.582,2.163-7.466,2.163c-6.385,0-10.917-4.841-10.917-11.433
                v-0.104c0-6.127,4.583-11.226,10.35-11.226c4.171,0,6.643,1.339,9.425,3.655l4.994-6.023c-3.76-3.193-7.673-4.944-14.163-4.944
                c-10.915,0-18.896,8.394-18.896,18.642v0.103c0,10.662,7.723,18.54,18.95,18.54c6.593,0,11.689-2.575,15.397-5.716V61.882h-15.654
                v6.849H236.766z"/>
            <g opacity="0.61" clip-path="url(#SVGID_4_)">
                <g>
                    <defs>
                        <rect id="SVGID_5_" x="11.701" y="41.284" width="74.449" height="64.15"/>
                    </defs>
                    <clipPath id="SVGID_6_">
                        <use xlink:href="#SVGID_5_" overflow="visible"/>
                    </clipPath>
                </g>
            </g>
            <g opacity="0.58" clip-path="url(#SVGID_4_)">
                <g>
                    <defs>
                        <rect id="SVGID_7_" x="54.93" y="28.137" width="73.151" height="64.149"/>
                    </defs>
                    <clipPath id="SVGID_8_">
                        <use xlink:href="#SVGID_7_" overflow="visible"/>
                    </clipPath>
                </g>
            </g>
            <path clip-path="url(#SVGID_4_)" fill="#00ADB3" d="M230.025,36.287h2.559V4.202h12.006V1.841h-26.569v2.361h12.005V36.287z
                 M187.756,19.703v-15.5h11.76c6.249,0,9.892,2.904,9.892,7.53v0.098c0,4.97-4.282,7.873-10.038,7.873H187.756z M185.195,36.287
                h2.561V22.016h11.267l10.976,14.271h3.246l-11.366-14.713c5.808-0.788,10.088-4.085,10.088-9.841v-0.098
                c0-2.46-0.984-4.774-2.608-6.398c-2.066-2.067-5.462-3.395-9.694-3.395h-14.468V36.287z M152.03,36.287h24.75v-2.362h-22.192
                V20.097h19.731v-2.363h-19.731V4.202h21.948V1.841H152.03V36.287z M131.115,36.877c6.103,0,10.041-2.411,13.681-6.002
                l-1.723-1.675c-3.493,3.445-6.889,5.364-11.86,5.364c-8.216,0-14.564-6.791-14.564-15.5v-0.099
                c0-8.659,6.249-15.401,14.516-15.401c5.168,0,8.612,2.165,11.614,5.068l1.819-1.871c-3.543-3.248-7.232-5.511-13.386-5.511
                c-9.939,0-17.221,8.071-17.221,17.813v0.099C113.992,29.054,121.274,36.877,131.115,36.877 M76.445,36.287h2.461V5.679
                l24.259,30.607h1.92V1.841h-2.46v29.968L78.857,1.841h-2.412V36.287z M50.266,34.564c-8.513,0-14.713-6.987-14.713-15.5v-0.099
                c0-8.512,6.103-15.401,14.616-15.401c8.512,0,14.713,6.987,14.713,15.5v0.099C64.881,27.675,58.778,34.564,50.266,34.564
                 M50.168,36.877c10.432,0,17.371-8.415,17.371-17.813v-0.099c0-9.398-6.84-17.714-17.273-17.714
                c-10.432,0-17.37,8.415-17.37,17.813v0.099C32.896,28.562,39.735,36.877,50.168,36.877 M1.5,36.287h2.559v-8.759l8.562-8.66
                l14.173,17.419h3.345L14.442,17.046L29.5,1.841h-3.493L4.059,24.477V1.841H1.5V36.287z"/>
            <path clip-path="url(#SVGID_4_)" fill="#231F20" d="M114.538,64.216c0-13.077-10.602-23.68-23.681-23.68
                c-11.036,0-20.28,7.558-22.908,17.773c4.883,4.874,7.902,11.611,7.902,19.054c0,1.633-0.169,3.222-0.446,4.771
                c4.148,3.582,9.541,5.763,15.452,5.763C103.936,87.897,114.538,77.293,114.538,64.216"/>
            <path clip-path="url(#SVGID_4_)" fill="#00ADB3" d="M90.856,74.156c5.49,0,9.938-4.449,9.938-9.941
                c0-5.488-4.448-9.938-9.938-9.938c-5.49,0-9.939,4.448-9.939,9.938C80.917,69.707,85.367,74.156,90.856,74.156"/>
            <path clip-path="url(#SVGID_4_)" d="M90.856,65.211c0.549,0,0.993-0.446,0.993-0.995s-0.443-0.993-0.993-0.993
                c-0.55,0-0.994,0.444-0.994,0.993S90.307,65.211,90.856,65.211"/>
            <path clip-path="url(#SVGID_4_)" fill="#231F20" d="M48.926,101.046c13.079,0,23.681-10.604,23.681-23.683
                c0-13.077-10.602-23.68-23.681-23.68c-13.078,0-23.68,10.603-23.68,23.68C25.246,90.441,35.849,101.046,48.926,101.046"/>
            <path clip-path="url(#SVGID_4_)" fill="#FFC94E" d="M48.926,87.303c5.489,0,9.939-4.448,9.939-9.939c0-5.489-4.45-9.94-9.939-9.94
                c-5.49,0-9.939,4.451-9.939,9.94C38.987,82.854,43.437,87.303,48.926,87.303"/>
            <path clip-path="url(#SVGID_4_)" d="M48.926,78.358c0.549,0,0.994-0.445,0.994-0.995c0-0.549-0.444-0.994-0.994-0.994
                c-0.55,0-0.993,0.445-0.993,0.994C47.933,77.913,48.376,78.358,48.926,78.358"/>
        </g>
        <g clip-path="url(#SVGID_2_)">
            <text transform="matrix(1 0 0 1 75.2993 100.7363)"><tspan x="0" y="0" fill="#231F20" font-family="'Gotham'" font-size="12.5883">K</tspan>
                <tspan x="9.177" y="0" fill="#231F20" font-family="'Gotham'" font-size="12.5883">ö</tspan>
                <tspan x="17.384" y="0" fill="#231F20" font-family="'Gotham'" font-size="12.5883">z</tspan>
                <tspan x="25.051" y="0" fill="#231F20" font-family="'Gotham'" font-size="12.5883">v</tspan>
                <tspan x="32.629" y="0" fill="#231F20" font-family="'Gotham'" font-size="12.5883">e</tspan>
                <tspan x="40.484" y="0" fill="#231F20" font-family="'Gotham'" font-size="12.5883">t</tspan>
                <tspan x="45.884" y="0" fill="#231F20" font-family="'Gotham'" font-size="12.5883">l</tspan>
                <tspan x="49.698" y="0" fill="#231F20" font-family="'Gotham'" font-size="12.5883">e</tspan>
                <tspan x="57.729" y="0" fill="#231F20" font-family="'Gotham'" font-size="12.5883">n</tspan>
                <tspan x="66.05" y="0" fill="#231F20" font-family="'Gotham'" font-size="12.5883">ü</tspan>
                <tspan x="74.283" y="0" fill="#231F20" font-family="'Gotham'" font-size="12.5883">l </tspan>
                <tspan x="82.376" y="0" fill="#231F20" font-family="'Gotham'" font-size="12.5883">a</tspan>
                <tspan x="90.043" y="0" fill="#231F20" font-family="'Gotham'" font-size="12.5883">z </tspan>
                <tspan x="101.826" y="0" fill="#231F20" font-family="'Gotham'" font-size="12.5883">e</tspan>
                <tspan x="109.832" y="0" fill="#231F20" font-family="'Gotham'" font-size="12.5883">l</tspan>
                <tspan x="113.721" y="0" fill="#231F20" font-family="'Gotham'" font-size="12.5883">ő</tspan>
                <tspan x="122.496" y="0" fill="#231F20" font-family="'Gotham'" font-size="12.5883">a</tspan>
                <tspan x="130.35" y="0" fill="#231F20" font-family="'Gotham'" font-size="12.5883">d</tspan>
                <tspan x="139.263" y="0" fill="#231F20" font-family="'Gotham'" font-size="12.5883">ó</tspan>
                <tspan x="147.785" y="0" fill="#231F20" font-family="'Gotham'" font-size="12.5883">t</tspan>
                <tspan x="153.059" y="0" fill="#231F20" font-family="'Gotham'" font-size="12.5883">ó</tspan>
                <tspan x="161.708" y="0" fill="#231F20" font-family="'Gotham'" font-size="12.5883">l</tspan>
                <tspan x="165.623" y="0" fill="#231F20" font-family="'Gotham'" font-size="12.5883">.</tspan></text>
        </g>
    </g>
</svg>
