<?xml version="1.0" encoding="utf-8"?>
<!-- Generator: Adobe Illustrator 16.0.0, SVG Export Plug-In . SVG Version: 6.00 Build 0)  -->
<!DOCTYPE svg PUBLIC "-//W3C//DTD SVG 1.1//EN" "http://www.w3.org/Graphics/SVG/1.1/DTD/svg11.dtd">
<svg xmlns:xlink="http://www.w3.org/1999/xlink" version="1.1" id="Layer_1" xmlns="http://www.w3.org/2000/svg" x="0px"
     y="0px"
     width="710px" height="88px" viewBox="0 0 710 88" enable-background="new 0 0 710 88" xml:space="preserve">
<g>
	<defs>
		<rect id="SVGID_1_" x="5" y="-1.913" width="699.498" height="92.74"/>
	</defs>
    <clipPath id="SVGID_2_">
		<use xlink:href="#SVGID_1_" overflow="visible"/>
	</clipPath>
    <g clip-path="url(#SVGID_2_)">
		<defs>
			<rect id="SVGID_3_" x="5" y="-1.912" width="699.498" height="92.739"/>
		</defs>
        <clipPath id="SVGID_4_">
			<use xlink:href="#SVGID_3_" overflow="visible"/>
		</clipPath>
        <path clip-path="url(#SVGID_4_)" d="M397.188,25.852c0,3.707-3.064,5.275-7.913,5.275h-10.122v-10.55h10.834
			c4.635,0,7.201,1.853,7.201,5.133V25.852z M407.743,26.986c0.209-0.917,0.351-1.893,0.351-2.988v-0.142
			c0-3.423-1.14-6.203-3.421-8.484c-2.853-2.851-7.343-4.42-13.047-4.42h-23.167v49.901h23.738c1.792,0,3.476-0.13,5.06-0.359
			c-0.424-2.25-0.672-4.566-0.672-6.937c0-1.031,0.074-2.042,0.157-3.053c-1.218,0.487-2.746,0.724-4.545,0.724h-13.045V40.251
			h12.688c3.139,0,5.271,0.663,6.573,1.81c0.826-2.547,1.935-4.964,3.261-7.239c-0.049-0.02-0.089-0.041-0.138-0.06
			c0.096-0.054,0.184-0.118,0.279-0.173C403.469,31.805,405.446,29.241,407.743,26.986 M570.124,60.854l-21.242-28.729
			l20.315-21.172h-13.258l-20.247,21.814V10.953h-10.978v6.729c2.84,5.261,4.454,11.28,4.454,17.676
			c0,6.397-1.614,12.414-4.454,17.676v7.819h10.978V45.598l5.776-5.988l15.469,21.244H570.124z M577.966,60.854h10.979V10.953
			h-10.979V60.854z M637.132,60.854h9.338V10.953h-10.835v30.725l-23.383-30.725h-10.121v49.901h10.836V29.129L637.132,60.854z
			 M693.875,41.604v7.129c-2.779,1.997-6.344,2.996-10.337,2.996c-8.84,0-15.112-6.703-15.112-15.828v-0.141
			c0-8.485,6.346-15.541,14.329-15.541c5.774,0,9.196,1.854,13.046,5.061l6.914-8.34c-5.205-4.419-10.621-6.844-19.603-6.844
			c-15.113,0-26.163,11.62-26.163,25.805v0.144c0,14.757,10.693,25.663,26.234,25.663c9.124,0,16.181-3.563,21.314-7.913v-21.67
			h-21.674v9.479H693.875z"/>
        <g opacity="0.61" clip-path="url(#SVGID_4_)">
			<g>
				<defs>
					<rect id="SVGID_5_" x="382.329" y="3.613" width="103.056" height="88.797"/>
				</defs>
                <clipPath id="SVGID_6_">
					<use xlink:href="#SVGID_5_" overflow="visible"/>
				</clipPath>
			</g>
		</g>
        <g opacity="0.58" clip-path="url(#SVGID_4_)">
			<g>
				<defs>
					<rect id="SVGID_7_" x="442.168" y="-14.586" width="101.259" height="88.799"/>
				</defs>
                <clipPath id="SVGID_8_">
					<use xlink:href="#SVGID_7_" overflow="visible"/>
				</clipPath>
			</g>
		</g>
        <path clip-path="url(#SVGID_4_)" fill="#00ADB3" d="M335.084,60.758h3.696V14.417h17.342v-3.413h-38.38v3.413h17.342V60.758z
			 M274.029,36.806V14.417h16.987c9.027,0,14.287,4.193,14.287,10.873v0.143c0,7.18-6.184,11.374-14.499,11.374H274.029z
			 M270.333,60.758h3.695V40.146h16.277l15.849,20.611h4.692l-16.419-21.252c8.388-1.137,14.571-5.899,14.571-14.216v-0.141
			c0-3.555-1.421-6.896-3.767-9.241c-2.984-2.986-7.889-4.904-14.002-4.904h-20.896V60.758z M222.426,60.758h35.751v-3.41h-32.056
			V37.375h28.503v-3.414h-28.503V14.417h31.702v-3.413h-35.398V60.758z M192.218,61.611c8.814,0,14.5-3.481,19.761-8.672
			l-2.489-2.416c-5.045,4.976-9.95,7.75-17.129,7.75c-11.871,0-21.039-9.812-21.039-22.391v-0.144
			c0-12.509,9.025-22.247,20.967-22.247c7.462,0,12.438,3.127,16.774,7.322l2.629-2.701c-5.116-4.692-10.448-7.963-19.333-7.963
			c-14.359,0-24.878,11.658-24.878,25.732v0.143C167.483,50.31,178.002,61.611,192.218,61.611 M113.251,60.758h3.555V16.549
			l35.041,44.209h2.772V11.004h-3.555V54.29l-34.33-43.286h-3.483V60.758z M75.438,58.273c-12.295,0-21.25-10.096-21.25-22.391
			v-0.144c0-12.296,8.812-22.247,21.111-22.247c12.295,0,21.251,10.094,21.251,22.391v0.143
			C96.549,48.321,87.736,58.273,75.438,58.273 M75.298,61.611c15.068,0,25.088-12.153,25.088-25.729v-0.144
			c0-13.575-9.878-25.588-24.948-25.588c-15.067,0-25.088,12.155-25.088,25.732v0.143C50.349,49.601,60.227,61.611,75.298,61.611
			 M5,60.758h3.695V48.106l12.368-12.51l20.472,25.162h4.833L23.694,32.966l21.748-21.962h-5.045L8.695,43.7V11.004H5V60.758z"/>
        <path clip-path="url(#SVGID_4_)" d="M524.681,35.358c0-18.104-14.676-32.781-32.782-32.781c-15.274,0-28.071,10.463-31.71,24.603
			c6.76,6.747,10.94,16.073,10.94,26.375c0,2.261-0.234,4.46-0.617,6.608c5.74,4.957,13.206,7.974,21.387,7.974
			C510.005,68.138,524.681,53.461,524.681,35.358"/>
        <path clip-path="url(#SVGID_4_)" fill="#00ADB3" d="M491.898,49.116c7.601,0,13.76-6.159,13.76-13.758s-6.159-13.759-13.76-13.759
			c-7.597,0-13.758,6.161-13.758,13.759S484.302,49.116,491.898,49.116"/>
        <path clip-path="url(#SVGID_4_)" d="M491.898,36.734c0.762,0,1.374-0.616,1.374-1.375s-0.612-1.377-1.374-1.377
			c-0.761,0-1.375,0.618-1.375,1.377S491.138,36.734,491.898,36.734"/>
        <path clip-path="url(#SVGID_4_)" d="M433.858,86.337c18.104,0,32.78-14.677,32.78-32.779c0-18.105-14.676-32.781-32.78-32.781
			s-32.781,14.676-32.781,32.781C401.077,71.66,415.754,86.337,433.858,86.337"/>
        <path clip-path="url(#SVGID_4_)" fill="#FFC94E" d="M433.858,67.313c7.6,0,13.757-6.158,13.757-13.756
			s-6.157-13.759-13.757-13.759c-7.601,0-13.758,6.162-13.758,13.759S426.258,67.313,433.858,67.313"/>
        <path clip-path="url(#SVGID_4_)" d="M433.858,54.933c0.759,0,1.374-0.616,1.374-1.377c0-0.759-0.615-1.375-1.374-1.375
			c-0.761,0-1.376,0.616-1.376,1.375C432.482,54.316,433.098,54.933,433.858,54.933"/>
	</g>
</g>
</svg>
